<svg width="32" height="32" viewBox="0 0 32 32" fill="none" xmlns="http://www.w3.org/2000/svg">
    <rect opacity="0.1" y="3.05176e-05" width="32" height="32" rx="12" fill="white"/>
    <path d="M15.4876 12.8602V10.1876C15.4876 9.90338 15.7142 9.66656 16.0009 9.66656C16.2576 9.66656 16.475 9.86556 16.5095 10.1176L16.5142 10.1876V12.8602L19.7008 12.8604C21.2875 12.8604 22.5911 14.1598 22.6643 15.7802L22.6675 15.924V19.2835C22.6675 20.9153 21.4093 22.2547 19.8462 22.3299L19.7075 22.3332L12.2942 22.3332C10.7075 22.3332 9.41023 21.0404 9.33739 19.4141L9.33417 19.2697L9.33417 15.9171C9.33417 14.2853 10.5861 12.9394 12.1488 12.8638L12.2875 12.8604L15.4875 12.8604V17.1287L14.4208 16.0272C14.2208 15.8207 13.8942 15.8207 13.6942 16.0272C13.5942 16.1305 13.5475 16.2682 13.5475 16.4059C13.5475 16.5105 13.5774 16.6195 13.6405 16.7119L13.6942 16.7776L15.6342 18.7878C15.7275 18.8911 15.8608 18.9462 16.0008 18.9462C16.1119 18.9462 16.2231 18.9079 16.311 18.8354L16.3608 18.7878L18.3008 16.7776C18.5008 16.5711 18.5008 16.2338 18.3008 16.0272C18.119 15.8395 17.8325 15.8224 17.6317 15.976L17.5742 16.0272L16.5142 17.1287V12.8604L15.4876 12.8602Z" fill="#808191"/>
</svg>
