<svg width="32" height="32" viewBox="0 0 32 32" fill="none" xmlns="http://www.w3.org/2000/svg">
    <rect y="0.000274658" width="32" height="32" rx="12" fill="#FF7551"/>
    <path d="M15.4874 12.8605V10.1878C15.4874 9.90363 15.7141 9.66681 16.0007 9.66681C16.2574 9.66681 16.4748 9.86581 16.5093 10.1179L16.5141 10.1878V12.8605L19.7007 12.8607C21.2873 12.8607 22.5909 14.16 22.6641 15.7804L22.6673 15.9242V19.2837C22.6673 20.9155 21.4091 22.2549 19.846 22.3302L19.7073 22.3335L12.294 22.3335C10.7073 22.3335 9.41004 21.0407 9.33721 19.4143L9.33398 19.27L9.33398 15.9173C9.33398 14.2855 10.5859 12.9396 12.1486 12.864L12.2873 12.8607L15.4873 12.8607V17.129L14.4207 16.0275C14.2207 15.8209 13.894 15.8209 13.694 16.0275C13.594 16.1307 13.5473 16.2684 13.5473 16.4061C13.5473 16.5107 13.5772 16.6198 13.6403 16.7121L13.694 16.7779L15.634 18.7881C15.7273 18.8913 15.8607 18.9464 16.0007 18.9464C16.1118 18.9464 16.2229 18.9082 16.3108 18.8357L16.3607 18.7881L18.3007 16.7779C18.5007 16.5713 18.5007 16.234 18.3007 16.0275C18.1188 15.8397 17.8323 15.8226 17.6315 15.9763L17.574 16.0275L16.514 17.129V12.8607L15.4874 12.8605Z" fill="white"/>
</svg>
