<svg width="32" height="32" viewBox="0 0 32 32" fill="none" xmlns="http://www.w3.org/2000/svg">
    <rect width="32" height="32" rx="12" fill="#FF7551"/>
    <path d="M14.0936 21.8495V19.811C14.0936 19.2906 14.5185 18.8688 15.0427 18.8688L16.9588 18.8688C17.2105 18.8688 17.4519 18.968 17.6299 19.1447C17.8079 19.3214 17.9079 19.5611 17.9079 19.811V21.8495C17.9063 22.0658 17.9918 22.2738 18.1453 22.4273C18.2989 22.5809 18.5078 22.6672 18.7257 22.6672H20.033C20.6435 22.6688 21.2296 22.4291 21.6619 22.0011C22.0941 21.5731 22.3371 20.9919 22.3371 20.3858V14.5785C22.3371 14.0889 22.1185 13.6245 21.7402 13.3103L17.2931 9.78447C16.5195 9.16627 15.4112 9.18623 14.6607 9.83188L10.3151 13.3103C9.9189 13.6152 9.68211 14.081 9.67041 14.5785V20.3799C9.67041 21.6431 10.702 22.6672 11.9745 22.6672H13.2519C13.7046 22.6672 14.0724 22.3047 14.0757 21.8554L14.0936 21.8495Z" fill="white"/>
</svg>
