<svg width="34" height="35" viewBox="0 0 34 35" fill="none" xmlns="http://www.w3.org/2000/svg">
    <g filter="url(#filter0_d_118_4005)">
        <rect x="1" y="0.000305176" width="32" height="32" rx="12" fill="#FF7551"/>
    </g>
    <path fill-rule="evenodd" clip-rule="evenodd" d="M17.1064 19.094L19.0008 17.1807C19.1922 16.9807 19.1922 16.6674 18.9942 16.474C18.8028 16.2807 18.4926 16.2807 18.3012 16.474L17.2516 17.5407V14.3274C17.2516 14.0474 17.0338 13.8274 16.7632 13.8274C16.4926 13.8274 16.2682 14.0474 16.2682 14.3274V17.5407L15.2186 16.474C15.0272 16.2807 14.717 16.2807 14.5256 16.474C14.3342 16.6674 14.3342 16.9807 14.5256 17.1807L16.4134 19.094C16.4596 19.1407 16.5124 19.174 16.5718 19.2007C16.6312 19.2274 16.6972 19.2407 16.7632 19.2407C16.8292 19.2407 16.8886 19.2274 16.948 19.2007C17.0074 19.174 17.0602 19.1407 17.1064 19.094ZM21.8895 14.0178C22.0447 14.016 22.2136 14.014 22.3671 14.014C22.5387 14.014 22.6707 14.1474 22.6707 14.314V19.674C22.6707 21.3274 21.3374 22.6674 19.7004 22.6674L14.4529 22.6674C12.7301 22.6674 11.3374 21.2607 11.3374 19.5274V12.3407C11.3374 10.6874 12.6641 9.33405 14.3143 9.33405H17.8391C18.0041 9.33405 18.1427 9.47405 18.1427 9.64071V11.7874C18.1427 13.0074 19.1328 14.0074 20.3473 14.014C20.6263 14.014 20.8759 14.0162 21.0938 14.018C21.2626 14.0194 21.4124 14.0207 21.542 14.0207C21.636 14.0207 21.7578 14.0193 21.8895 14.0178ZM22.0738 13.0448C21.5319 13.0468 20.8923 13.0448 20.4322 13.0401C19.7022 13.0401 19.1009 12.4328 19.1009 11.6954V9.93812C19.1009 9.65078 19.4461 9.50812 19.6428 9.71545C20.1513 10.249 20.9299 11.0668 21.5878 11.7578C21.8538 12.0373 22.1002 12.296 22.3009 12.5068C22.4936 12.7088 22.3524 13.0441 22.0738 13.0448Z" fill="white"/>
    <defs>
        <filter id="filter0_d_118_4005" x="5.96046e-08" y="0.000305176" width="34" height="35" filterUnits="userSpaceOnUse" color-interpolation-filters="sRGB">
            <feFlood flood-opacity="0" result="BackgroundImageFix"/>
            <feColorMatrix in="SourceAlpha" type="matrix" values="0 0 0 0 0 0 0 0 0 0 0 0 0 0 0 0 0 0 127 0" result="hardAlpha"/>
            <feOffset dy="2"/>
            <feGaussianBlur stdDeviation="0.5"/>
            <feColorMatrix type="matrix" values="0 0 0 0 0.25098 0 0 0 0 0.282353 0 0 0 0 0.321569 0 0 0 0.05 0"/>
            <feBlend mode="normal" in2="BackgroundImageFix" result="effect1_dropShadow_118_4005"/>
            <feBlend mode="normal" in="SourceGraphic" in2="effect1_dropShadow_118_4005" result="shape"/>
        </filter>
    </defs>
</svg>
