<svg width="34" height="35" viewBox="0 0 34 35" fill="none" xmlns="http://www.w3.org/2000/svg">
    <g opacity="0.1" filter="url(#filter0_d_105_49)">
        <rect x="1" y="0.000305176" width="32" height="32" rx="12" fill="white"/>
    </g>
    <path fill-rule="evenodd" clip-rule="evenodd" d="M17.1061 19.094L19.0005 17.1807C19.1919 16.9807 19.1919 16.6674 18.9939 16.474C18.8024 16.2807 18.4922 16.2807 18.3008 16.474L17.2513 17.5407V14.3274C17.2513 14.0474 17.0335 13.8274 16.7628 13.8274C16.4922 13.8274 16.2678 14.0474 16.2678 14.3274V17.5407L15.2183 16.474C15.0269 16.2807 14.7166 16.2807 14.5252 16.474C14.3338 16.6674 14.3338 16.9807 14.5252 17.1807L16.413 19.094C16.4592 19.1407 16.512 19.174 16.5714 19.2007C16.6308 19.2274 16.6968 19.2407 16.7628 19.2407C16.8288 19.2407 16.8882 19.2274 16.9477 19.2007C17.0071 19.174 17.0599 19.1407 17.1061 19.094ZM21.8891 14.0178C22.0443 14.016 22.2132 14.014 22.3667 14.014C22.5384 14.014 22.6704 14.1474 22.6704 14.314V19.674C22.6704 21.3274 21.337 22.6674 19.7001 22.6674L14.4525 22.6674C12.7298 22.6674 11.337 21.2607 11.337 19.5274V12.3407C11.337 10.6874 12.6638 9.33405 14.3139 9.33405H17.8387C18.0037 9.33405 18.1423 9.47405 18.1423 9.64071V11.7874C18.1423 13.0074 19.1324 14.0074 20.3469 14.014C20.6259 14.014 20.8755 14.0162 21.0934 14.018C21.2622 14.0194 21.412 14.0207 21.5417 14.0207C21.6356 14.0207 21.7574 14.0193 21.8891 14.0178ZM22.0734 13.0448C21.5315 13.0468 20.8919 13.0448 20.4319 13.0401C19.7018 13.0401 19.1005 12.4328 19.1005 11.6954V9.93812C19.1005 9.65078 19.4457 9.50812 19.6424 9.71545C20.151 10.249 20.9295 11.0668 21.5874 11.7578C21.8535 12.0373 22.0998 12.296 22.3005 12.5068C22.4932 12.7088 22.352 13.0441 22.0734 13.0448Z" fill="#808191"/>
    <defs>
        <filter id="filter0_d_105_49" x="5.96046e-08" y="0.000305176" width="34" height="35" filterUnits="userSpaceOnUse" color-interpolation-filters="sRGB">
            <feFlood flood-opacity="0" result="BackgroundImageFix"/>
            <feColorMatrix in="SourceAlpha" type="matrix" values="0 0 0 0 0 0 0 0 0 0 0 0 0 0 0 0 0 0 127 0" result="hardAlpha"/>
            <feOffset dy="2"/>
            <feGaussianBlur stdDeviation="0.5"/>
            <feColorMatrix type="matrix" values="0 0 0 0 0.25098 0 0 0 0 0.282353 0 0 0 0 0.321569 0 0 0 0.05 0"/>
            <feBlend mode="normal" in2="BackgroundImageFix" result="effect1_dropShadow_105_49"/>
            <feBlend mode="normal" in="SourceGraphic" in2="effect1_dropShadow_105_49" result="shape"/>
        </filter>
    </defs>
</svg>
