<svg width="32" height="32" viewBox="0 0 32 32" fill="none" xmlns="http://www.w3.org/2000/svg">
    <rect opacity="0.1" y="0.000244141" width="32" height="32" rx="12" fill="white"/>
    <path fill-rule="evenodd" clip-rule="evenodd" d="M15.227 16.0048L15.228 16.2409C15.2361 17.1772 15.2926 18.0126 15.3899 18.542C15.3899 18.5515 15.4961 19.0766 15.5637 19.2514C15.6699 19.504 15.8619 19.7184 16.1026 19.8543C16.2954 19.9512 16.4975 20.0004 16.7092 20.0004C16.8755 19.9927 17.1499 19.909 17.3457 19.8388L17.5084 19.7764C18.5862 19.3483 20.6466 17.9494 21.4357 17.0938L21.4938 17.034L21.7535 16.7538C21.9171 16.5394 22.0037 16.2772 22.0037 15.9953C22.0037 15.7426 21.9266 15.49 21.7724 15.2859C21.7262 15.2197 21.6519 15.1349 21.5857 15.0632L21.333 14.7987C20.4634 13.9175 18.5804 12.6816 17.6044 12.2721C17.6044 12.2633 16.9979 12.0099 16.7092 12.0004H16.6706C16.2277 12.0004 15.8139 12.253 15.6023 12.6613C15.5445 12.7729 15.489 12.9916 15.4468 13.1836L15.371 13.5462C15.2845 14.1293 15.227 15.0237 15.227 16.0048ZM11.0058 14.9882C10.4524 14.9882 10.0037 15.4413 10.0037 16.0001C10.0037 16.5589 10.4524 17.012 11.0058 17.012L13.472 16.7939C13.9062 16.7939 14.2582 16.4392 14.2582 16.0001C14.2582 15.5617 13.9062 15.2063 13.472 15.2063L11.0058 14.9882Z" fill="#808191"/>
</svg>
