<svg width="32" height="32" viewBox="0 0 32 32" fill="none" xmlns="http://www.w3.org/2000/svg">
    <rect y="0.000244141" width="32" height="32" rx="12" fill="#FF7551"/>
    <path fill-rule="evenodd" clip-rule="evenodd" d="M15.2273 16.0048L15.2283 16.2409C15.2364 17.1772 15.2928 18.0126 15.3902 18.542C15.3902 18.5515 15.4963 19.0766 15.564 19.2514C15.6702 19.504 15.8622 19.7184 16.1029 19.8543C16.2956 19.9512 16.4978 20.0004 16.7094 20.0004C16.8758 19.9927 17.1501 19.909 17.346 19.8388L17.5087 19.7764C18.5865 19.3483 20.6468 17.9494 21.4359 17.0938L21.4941 17.034L21.7537 16.7538C21.9174 16.5394 22.0039 16.2772 22.0039 15.9953C22.0039 15.7426 21.9268 15.49 21.7726 15.2859C21.7265 15.2197 21.6521 15.1349 21.586 15.0632L21.3332 14.7987C20.4636 13.9175 18.5807 12.6816 17.6047 12.2721C17.6047 12.2633 16.9981 12.0099 16.7094 12.0004H16.6709C16.228 12.0004 15.8142 12.253 15.6025 12.6613C15.5447 12.7729 15.4893 12.9916 15.4471 13.1836L15.3713 13.5462C15.2847 14.1293 15.2273 15.0237 15.2273 16.0048ZM11.0061 14.9882C10.4526 14.9882 10.0039 15.4413 10.0039 16.0001C10.0039 16.5589 10.4526 17.012 11.0061 17.012L13.4722 16.7939C13.9064 16.7939 14.2584 16.4392 14.2584 16.0001C14.2584 15.5617 13.9064 15.2063 13.4722 15.2063L11.0061 14.9882Z" fill="white"/>
</svg>
