<svg width="43" height="43" viewBox="0 0 43 43" fill="none" xmlns="http://www.w3.org/2000/svg">
<g clip-path="url(#clip0_116_1289)">
<rect width="43" height="43" rx="12" fill="white"/>
<path d="M33.0508 15.3367C32.6843 14.4881 32.1558 13.7191 31.4949 13.0727C30.8336 12.4244 30.0538 11.9092 29.198 11.5551C28.3107 11.1865 27.3589 10.9978 26.398 11C25.05 11 23.7348 11.3692 22.5918 12.0664C22.3184 12.2332 22.0586 12.4164 21.8125 12.616C21.5664 12.4164 21.3066 12.2332 21.0332 12.0664C19.8902 11.3692 18.575 11 17.227 11C16.2562 11 15.3156 11.186 14.427 11.5551C13.5684 11.9106 12.7945 12.4219 12.1301 13.0727C11.4684 13.7183 10.9397 14.4875 10.5742 15.3367C10.1941 16.2199 10 17.1578 10 18.1231C10 19.0336 10.1859 19.9824 10.5551 20.9477C10.8641 21.7543 11.307 22.591 11.873 23.436C12.7699 24.7731 14.0031 26.1676 15.5344 27.5813C18.0719 29.9246 20.5848 31.5434 20.6914 31.609L21.3395 32.0246C21.6266 32.2078 21.9957 32.2078 22.2828 32.0246L22.9309 31.609C23.0375 31.5406 25.5477 29.9246 28.0879 27.5813C29.6191 26.1676 30.8523 24.7731 31.7492 23.436C32.3152 22.591 32.7609 21.7543 33.0672 20.9477C33.4363 19.9824 33.6223 19.0336 33.6223 18.1231C33.625 17.1578 33.4309 16.2199 33.0508 15.3367Z" fill="#FF7551"/>
</g>
<defs>
<clipPath id="clip0_116_1289">
<rect width="43" height="43" fill="white"/>
</clipPath>
</defs>
</svg>
