<svg width="43" height="43" viewBox="0 0 43 43" fill="none" xmlns="http://www.w3.org/2000/svg">
    <rect width="43" height="43" rx="12" fill="white"/>
    <path d="M29.2686 16.0983C29.1365 15.4142 28.8595 14.7642 28.4552 14.1895C28.0509 13.6149 27.528 13.1281 26.9199 12.76C26.3117 12.3919 25.6314 12.1506 24.9221 12.0513C24.2129 11.9521 23.4901 11.9971 22.7997 12.1834L15.484 14.1574C14.9517 14.3011 14.4716 14.5868 14.098 14.9822C13.7245 15.3775 13.4725 15.8666 13.3706 16.3941L13.0395 18.1111C12.7956 19.373 13.7193 20.4755 14.7495 20.8904C15.1263 21.0426 15.5564 21.2536 16.0101 21.5479C18.4931 23.1544 19.6754 25.3322 20.4676 27.1827C20.6094 27.5158 20.7454 27.8574 20.8769 28.1862C21.0927 28.726 21.2967 29.2342 21.4918 29.6232C21.6558 29.9491 21.8539 30.2765 22.1125 30.5277C22.3874 30.7976 22.7554 31 23.218 31C23.7456 31 24.2023 30.822 24.5659 30.5119C24.9132 30.2147 25.1467 29.8214 25.3078 29.4194C25.624 28.6241 25.7231 27.6234 25.7364 26.7018C25.7414 25.7388 25.6787 24.7766 25.5487 23.8219H26.3054C26.8483 23.8219 27.3845 23.7057 27.876 23.4815C28.3674 23.2572 28.8019 22.9306 29.1486 22.5248C29.4953 22.1189 29.7456 21.6438 29.8818 21.1333C30.018 20.6228 30.0368 20.0894 29.9366 19.5711L29.2671 16.0969L29.2686 16.0983Z" fill="#FF7551"/>
</svg>
