<svg width="43" height="43" viewBox="0 0 43 43" fill="none" xmlns="http://www.w3.org/2000/svg">
    <rect width="43" height="43" rx="12" fill="#353440"/>
    <path d="M24.0489 12.0611C23.0379 11.7771 22.248 12.5366 21.9662 13.2444C21.6427 14.0596 21.3556 14.6315 21.0146 15.3149C20.7684 15.8053 20.5289 16.2989 20.2961 16.7958C19.6558 18.168 19.0182 19.0456 18.5532 19.5741C18.3841 19.7689 18.2017 19.9514 18.0072 20.1203C17.9631 20.1585 17.9177 20.1952 17.8711 20.2304L17.8495 20.2467L15.3261 21.7452C14.7798 22.07 14.3647 22.5786 14.1536 23.1814C13.9426 23.7842 13.9492 24.4428 14.1722 25.0412L14.8732 26.9215C15.0171 27.3078 15.2464 27.656 15.5437 27.9396C15.8411 28.2233 16.1986 28.435 16.5892 28.5586L23.8089 30.8438C24.2361 30.9791 24.6858 31.0272 25.1317 30.9854C25.5776 30.9435 26.0107 30.8125 26.4058 30.6C26.8009 30.3875 27.15 30.0977 27.4327 29.7477C27.7154 29.3977 27.9261 28.9944 28.0523 28.5613L29.891 22.2479C30.0089 21.8427 30.0315 21.4153 29.957 20.9998C29.8825 20.5842 29.7129 20.1919 29.4617 19.8539C29.2105 19.5159 28.8846 19.2416 28.5099 19.0527C28.1351 18.8638 27.7219 18.7656 27.3029 18.7658H25.4373C25.5262 18.4574 25.6166 18.115 25.7001 17.7604C25.8767 16.9969 26.0277 16.126 26.0129 15.3992C26.0007 14.7239 25.932 14.0147 25.657 13.4129C25.3618 12.7675 24.8455 12.2825 24.0502 12.0597L24.0489 12.0611ZM17.8455 20.2507L17.8428 20.2521L17.8455 20.2507Z" fill="#808191"/>
</svg>
