<svg width="60" height="60" viewBox="0 0 60 60" fill="none" xmlns="http://www.w3.org/2000/svg">
    <circle opacity="0.5" cx="30" cy="30" r="29.5" stroke="white"/>
    <path fill-rule="evenodd" clip-rule="evenodd" d="M30 49C39.941 49 48 40.941 48 31C48 21.059 39.941 13 30 13C20.059 13 12 21.059 12 31C12 40.941 20.059 49 30 49ZM30 51C41.046 51 50 42.046 50 31C50 19.954 41.046 11 30 11C18.954 11 10 19.954 10 31C10 42.046 18.954 51 30 51Z" fill="#8F8E95"/>
    <path d="M18 42.63C18 41.597 18.772 40.724 19.8 40.61C27.515 39.756 32.52 39.833 40.218 40.629C40.6024 40.6694 40.9667 40.8208 41.2665 41.0648C41.5663 41.3089 41.7885 41.6349 41.906 42.0031C42.0235 42.3714 42.0312 42.7658 41.9282 43.1384C41.8252 43.5109 41.616 43.8454 41.326 44.101C32.241 52.02 27.049 51.911 18.64 44.109C18.23 43.729 18 43.189 18 42.631V42.63Z" fill="#8F8E95"/>
    <path fill-rule="evenodd" clip-rule="evenodd" d="M40.115 41.623C32.478 40.833 27.545 40.759 19.909 41.604C19.6576 41.6333 19.4259 41.7543 19.2582 41.9437C19.0905 42.1332 18.9986 42.3779 19 42.631C19 42.917 19.119 43.188 19.32 43.376C23.488 47.242 26.646 48.989 29.733 49C32.831 49.011 36.159 47.278 40.669 43.348C40.8123 43.2205 40.9154 43.0541 40.9659 42.869C41.0164 42.684 41.012 42.4882 40.9533 42.3056C40.8946 42.123 40.7842 41.9614 40.6354 41.8404C40.4865 41.7194 40.3058 41.6442 40.115 41.624V41.623ZM19.69 39.616C27.486 38.753 32.564 38.831 40.322 39.634C40.9003 39.6944 41.4485 39.922 41.8994 40.2891C42.3503 40.6562 42.6844 41.1468 42.8607 41.7009C43.0371 42.2549 43.0481 42.8484 42.8924 43.4086C42.7367 43.9688 42.421 44.4714 41.984 44.855C37.409 48.843 33.599 51.015 29.727 51C25.844 50.986 22.202 48.777 17.961 44.842C17.6574 44.5592 17.4153 44.2168 17.2499 43.8362C17.0846 43.4556 16.9995 43.045 17 42.63C16.9985 41.8844 17.2722 41.1645 17.7686 40.6082C18.2649 40.0519 18.9491 39.6982 19.69 39.615V39.616Z" fill="#8F8E95"/>
    <path d="M38 27C38 29.1217 37.1571 31.1566 35.6569 32.6569C34.1566 34.1571 32.1217 35 30 35C27.8783 35 25.8434 34.1571 24.3431 32.6569C22.8429 31.1566 22 29.1217 22 27C22 24.8783 22.8429 22.8434 24.3431 21.3431C25.8434 19.8429 27.8783 19 30 19C32.1217 19 34.1566 19.8429 35.6569 21.3431C37.1571 22.8434 38 24.8783 38 27V27Z" fill="#8F8E95"/>
    <path fill-rule="evenodd" clip-rule="evenodd" d="M30 33C31.5913 33 33.1174 32.3679 34.2426 31.2426C35.3679 30.1174 36 28.5913 36 27C36 25.4087 35.3679 23.8826 34.2426 22.7574C33.1174 21.6321 31.5913 21 30 21C28.4087 21 26.8826 21.6321 25.7574 22.7574C24.6321 23.8826 24 25.4087 24 27C24 28.5913 24.6321 30.1174 25.7574 31.2426C26.8826 32.3679 28.4087 33 30 33V33ZM30 35C32.1217 35 34.1566 34.1571 35.6569 32.6569C37.1571 31.1566 38 29.1217 38 27C38 24.8783 37.1571 22.8434 35.6569 21.3431C34.1566 19.8429 32.1217 19 30 19C27.8783 19 25.8434 19.8429 24.3431 21.3431C22.8429 22.8434 22 24.8783 22 27C22 29.1217 22.8429 31.1566 24.3431 32.6569C25.8434 34.1571 27.8783 35 30 35V35Z" fill="#8F8E95"/>
</svg>
