<svg width="20" height="20" viewBox="0 0 20 20" fill="none" xmlns="http://www.w3.org/2000/svg">
    <path fill-rule="evenodd" clip-rule="evenodd" d="M15.5893 7.3303C15.5893 8.37691 15.8659 8.99379 16.4747 9.70468C16.936 10.2284 17.0834 10.9007 17.0834 11.63C17.0834 12.3586 16.8441 13.0501 16.3645 13.6116C15.7367 14.2848 14.8514 14.7145 13.9478 14.7892C12.6384 14.9008 11.3281 14.9948 10.0005 14.9948C8.67203 14.9948 7.36262 14.9386 6.05321 14.7892C5.14879 14.7145 4.26343 14.2848 3.63647 13.6116C3.15693 13.0501 2.91675 12.3586 2.91675 11.63C2.91675 10.9007 3.065 10.2284 3.52549 9.70468C4.15328 8.99379 4.41168 8.37691 4.41168 7.3303V6.97527C4.41168 5.57364 4.76119 4.65712 5.48091 3.75991C6.55097 2.45143 8.26621 1.66669 9.96323 1.66669H10.0378C11.7712 1.66669 13.542 2.4892 14.5938 3.85391C15.2762 4.73266 15.5893 5.61057 15.5893 6.97527V7.3303ZM7.56146 16.7174C7.56146 16.2977 7.94658 16.1055 8.30272 16.0233C8.71931 15.9352 11.2578 15.9352 11.6744 16.0233C12.0305 16.1055 12.4156 16.2977 12.4156 16.7174C12.3949 17.1169 12.1606 17.4711 11.8367 17.696C11.4168 18.0234 10.924 18.2307 10.4089 18.3054C10.124 18.3423 9.84403 18.3431 9.56906 18.3054C9.05308 18.2307 8.56029 18.0234 8.14122 17.6952C7.81655 17.4711 7.58217 17.1169 7.56146 16.7174Z" fill="#808191"/>
</svg>
