<svg width="20" height="23" viewBox="0 0 20 23" fill="none" xmlns="http://www.w3.org/2000/svg">
    <path fill-rule="evenodd" clip-rule="evenodd" d="M15.5893 10.3303C15.5893 11.3769 15.8659 11.9938 16.4747 12.7047C16.936 13.2284 17.0834 13.9007 17.0834 14.63C17.0834 15.3586 16.8441 16.0501 16.3645 16.6116C15.7367 17.2848 14.8514 17.7145 13.9478 17.7892C12.6384 17.9008 11.3281 17.9948 10.0005 17.9948C8.67203 17.9948 7.36262 17.9386 6.05321 17.7892C5.14879 17.7145 4.26343 17.2848 3.63647 16.6116C3.15693 16.0501 2.91675 15.3586 2.91675 14.63C2.91675 13.9007 3.065 13.2284 3.52549 12.7047C4.15328 11.9938 4.41168 11.3769 4.41168 10.3303V9.97527C4.41168 8.57364 4.76119 7.65712 5.48091 6.75991C6.55097 5.45143 8.26621 4.66669 9.96323 4.66669H10.0378C11.7712 4.66669 13.542 5.4892 14.5938 6.85391C15.2762 7.73266 15.5893 8.61057 15.5893 9.97527V10.3303ZM7.56146 19.7174C7.56146 19.2977 7.94658 19.1055 8.30272 19.0233C8.71931 18.9352 11.2578 18.9352 11.6744 19.0233C12.0305 19.1055 12.4156 19.2977 12.4156 19.7174C12.3949 20.1169 12.1606 20.4711 11.8367 20.696C11.4168 21.0234 10.924 21.2307 10.4089 21.3054C10.124 21.3423 9.84403 21.3431 9.56906 21.3054C9.05308 21.2307 8.56029 21.0234 8.14122 20.6952C7.81655 20.4711 7.58217 20.1169 7.56146 19.7174Z" fill="#808191"/>
    <circle cx="15" cy="4.77783" r="3.6" fill="#EC5252" stroke="#1E2127" stroke-width="1.2"/>
</svg>
